<svg xmlns="http://www.w3.org/2000/svg" viewBox="0 0 32.943 22.681">
  <defs>
    <style>
      .cls-1, .cls-4 {
        fill: none;
        stroke: #000;
      }

      .cls-1 {
        stroke-width: 0.7px;
      }

      .cls-2 {
        fill: #f05a40;
      }

      .cls-3, .cls-6 {
        fill: #de4830;
      }

      .cls-4 {
        stroke-width: 0.5px;
      }

      .cls-5, .cls-6 {
        stroke: none;
      }
    </style>
  </defs>
  <g id="lotus_logo_small_" data-name="lotus logo(small)" transform="translate(-1779.221 -1033.877)">
    <g id="Group_3" data-name="Group 3" transform="translate(1779.658 1040.451)">
      <path id="Path_1" data-name="Path 1" class="cls-1" d="M1785.57,1048.161l15.721,6.756,16.279-6.756" transform="translate(-1785.57 -1048.161)"/>
      <path id="Path_2" data-name="Path 2" class="cls-1" d="M1785.57,1048.161l15.721,6.756,16.279-6.756" transform="translate(-1785.57 -1045.7)"/>
      <path id="Path_3" data-name="Path 3" class="cls-1" d="M1785.57,1048.161l15.721,6.756,16.279-6.756" transform="translate(-1785.57 -1046.931)"/>
      <g id="Path_4" data-name="Path 4" class="cls-2" transform="translate(-1786.007 -1056.181)">
        <path class="cls-5" d="M 1801.719116210938 1071.747314453125 L 1801.52587890625 1071.666381835938 L 1786.376708984375 1065.324829101563 L 1786.06982421875 1065.196411132813 L 1786.06982421875 1064.863647460938 L 1786.06982421875 1062.020141601563 L 1786.06982421875 1061.271484375 L 1786.761352539063 1061.558349609375 L 1801.717041015625 1067.761352539063 L 1817.318237304688 1061.157958984375 L 1818.01318359375 1060.863891601563 L 1818.01318359375 1061.618408203125 L 1818.01318359375 1064.58447265625 L 1818.01318359375 1064.9169921875 L 1817.70654296875 1065.045654296875 L 1801.912353515625 1071.666381835938 L 1801.719116210938 1071.747314453125 Z"/>
        <path class="cls-6" d="M 1817.51318359375 1061.618408203125 L 1801.718994140625 1068.303466796875 L 1786.56982421875 1062.020141601563 L 1786.56982421875 1064.863647460938 L 1801.718994140625 1071.205200195313 L 1817.51318359375 1064.58447265625 L 1817.51318359375 1061.618408203125 M 1818.51318359375 1060.109252929688 L 1818.51318359375 1061.618408203125 L 1818.51318359375 1064.58447265625 L 1818.51318359375 1065.249633789063 L 1817.899780273438 1065.506713867188 L 1802.105590820313 1072.12744140625 L 1801.71923828125 1072.289428710938 L 1801.332885742188 1072.127685546875 L 1786.183715820313 1065.7861328125 L 1785.56982421875 1065.529174804688 L 1785.56982421875 1064.863647460938 L 1785.56982421875 1062.020141601563 L 1785.56982421875 1060.522827148438 L 1786.953002929688 1061.096435546875 L 1801.715087890625 1067.21923828125 L 1817.123413085938 1060.697509765625 L 1818.51318359375 1060.109252929688 Z"/>
      </g>
      <path id="Subtraction_4" data-name="Subtraction 4" class="cls-3" d="M0,9.757H0V6.713H0L15.769.039,15.861,0V3.109l-.04.017L.027,9.747,0,9.757Z" transform="translate(15.711 5.338)"/>
    </g>
    <g id="Group_2" data-name="Group 2" transform="translate(1786.63 1034.254)">
      <path id="Subtraction_1" data-name="Subtraction 1" class="cls-4" d="M0,4.688H0L10.016.567,11.493,0V0Z" transform="translate(0 0.601) rotate(-3)"/>
      <path id="Subtraction_2" data-name="Subtraction 2" class="cls-4" d="M0,4.315H0L9.122.522,10.466,0V0Z" transform="translate(1.025 1.778) rotate(-3)"/>
      <path id="Subtraction_3" data-name="Subtraction 3" class="cls-4" d="M0,3.992H0L8.054.483,9.241,0V0Z" transform="translate(2.248 2.945) rotate(-3)"/>
    </g>
  </g>
</svg>
